<?xml version="1.0" encoding="UTF-8"?>
<svg id="_レイヤー_1" data-name="レイヤー 1" xmlns="http://www.w3.org/2000/svg" xmlns:xlink="http://www.w3.org/1999/xlink" viewBox="0 0 1430.77 383.67">
  <defs>
    <style>
      .cls-1 {
        fill: url(#_名称未設定グラデーション_27);
      }

      .cls-2 {
        fill: #3c3c3c;
        font-family: TrebuchetMS-Bold, 'Trebuchet MS';
        font-size: 325.89px;
        font-weight: 700;
      }
    </style>
    <linearGradient id="_名称未設定グラデーション_27" data-name="名称未設定グラデーション 27" x1="0" y1="175" x2="350" y2="175" gradientUnits="userSpaceOnUse">
      <stop offset="0" stop-color="#fff"/>
      <stop offset="0" stop-color="#ffc100"/>
      <stop offset=".66" stop-color="#ea521c"/>
      <stop offset="1" stop-color="#bc00ff"/>
    </linearGradient>
  </defs>
  <text class="cls-2" transform="translate(380.77 295.83) scale(1.06 1)"><tspan x="0" y="0">TRAVE</tspan></text>
  <path class="cls-1" d="m175,0C78.35,0,0,78.35,0,175s78.35,175,175,175,175-78.35,175-175S271.65,0,175,0Zm17.5,316.43v-30.79l-35-7.76v38.55c-39.23-4.8-73.53-25.55-96.23-55.56l26.66-15.39-10.78-34.19-33.41,19.29c-7.24-17.08-11.24-35.86-11.24-55.57s4.01-38.5,11.24-55.57l26.69,15.41,24.22-26.43-33.38-19.27c22.7-30.01,56.99-50.76,96.23-55.56v30.79l35,7.76v-38.55c39.23,4.8,73.53,25.55,96.23,55.56l-26.66,15.39,10.78,34.19,33.41-19.29c7.24,17.08,11.24,35.86,11.24,55.57s-4.01,38.5-11.24,55.57l-26.69-15.41-24.22,26.43,33.38,19.27c-22.7,30.01-56.99,50.76-96.23,55.56Zm-35-79.44l35,7.76v22.71l-35-7.76v-22.71Zm0-154.46l35,7.76v23.24l-35-7.76v-23.24Zm106.33,123.55l-24.22,26.43-19.67-11.36,24.22-26.43,19.67,11.36ZM110.39,117.49l20.13,11.62-24.22,26.43-20.13-11.62,24.22-26.43Zm127.05,41.67l-10.78-34.19,19.67-11.36,10.78,34.19-19.67,11.36Zm-124.42,31.42l10.78,34.19-20.13,11.62-10.78-34.19,20.13-11.62Z"/>
</svg>