<?xml version="1.0" encoding="UTF-8"?>
<svg id="_レイヤー_1" data-name="レイヤー 1" xmlns="http://www.w3.org/2000/svg" xmlns:xlink="http://www.w3.org/1999/xlink" viewBox="0 0 1000 1000">
  <defs>
    <style>
      .cls-1 {
        fill: url(#_名称未設定グラデーション_27);
      }
    </style>
    <linearGradient id="_名称未設定グラデーション_27" data-name="名称未設定グラデーション 27" x1="0" y1="500" x2="1000" y2="500" gradientUnits="userSpaceOnUse">
      <stop offset="0" stop-color="#fff"/>
      <stop offset="0" stop-color="#ffc100"/>
      <stop offset=".66" stop-color="#ea521c"/>
      <stop offset="1" stop-color="#bc00ff"/>
    </linearGradient>
  </defs>
  <path class="cls-1" d="m500,0C223.86,0,0,223.86,0,500s223.86,500,500,500,500-223.86,500-500S776.14,0,500,0Zm50,904.08v-87.97l-100-22.17v110.14c-112.09-13.73-210.08-73-274.93-158.75l76.17-43.98-30.8-97.69-95.45,55.11c-20.68-48.79-32.13-102.45-32.13-158.78s11.44-109.99,32.13-158.78l76.26,44.03,69.2-75.52-95.37-55.06c64.85-85.75,162.84-145.02,274.93-158.75v87.97l100,22.17v-110.14c112.09,13.73,210.08,73,274.93,158.75l-76.17,43.98,30.8,97.69,95.45-55.11c20.68,48.79,32.13,102.45,32.13,158.78s-11.44,109.99-32.13,158.78l-76.25-44.03-69.2,75.52,95.37,55.06c-64.85,85.75-162.84,145.02-274.93,158.75Zm-100-226.96l100,22.17v64.9l-100-22.17v-64.9Zm0-441.31l100,22.17v66.4l-100-22.17v-66.4Zm303.8,352.99l-69.2,75.52-56.2-32.45,69.2-75.52,56.2,32.45Zm-438.39-253.11l57.5,33.2-69.2,75.52-57.5-33.2,69.2-75.52Zm362.99,119.05l-30.8-97.69,56.2-32.45,30.8,97.69-56.2,32.45Zm-355.49,89.77l30.8,97.69-57.5,33.2-30.8-97.69,57.5-33.2Z"/>
</svg>